<svg width="136" height="40" viewBox="0 0 136 40" fill="none" xmlns="http://www.w3.org/2000/svg">
<path d="M30.56 25V10.9H35.68C37.2933 10.9 38.6533 11.18 39.76 11.74C40.88 12.2867 41.7267 13.0867 42.3 14.14C42.8733 15.18 43.16 16.4467 43.16 17.94C43.16 19.42 42.8733 20.6867 42.3 21.74C41.7267 22.7933 40.88 23.6 39.76 24.16C38.6533 24.72 37.2933 25 35.68 25H30.56ZM33.14 22.86H35.52C37.2267 22.86 38.4933 22.4533 39.32 21.64C40.1467 20.8267 40.56 19.5933 40.56 17.94C40.56 16.2733 40.1467 15.04 39.32 14.24C38.4933 13.4267 37.2267 13.02 35.52 13.02H33.14V22.86ZM50.4744 25.2C48.781 25.2 47.4544 24.7333 46.4944 23.8C45.5344 22.8667 45.0544 21.5867 45.0544 19.96C45.0544 18.9067 45.261 17.9867 45.6744 17.2C46.0877 16.4133 46.661 15.8 47.3944 15.36C48.141 14.92 49.0077 14.7 49.9944 14.7C50.9677 14.7 51.781 14.9067 52.4344 15.32C53.0877 15.7333 53.581 16.3133 53.9144 17.06C54.261 17.8067 54.4344 18.68 54.4344 19.68V20.34H47.0744V19.02H52.6544L52.3144 19.3C52.3144 18.3667 52.1144 17.6533 51.7144 17.16C51.3277 16.6667 50.761 16.42 50.0144 16.42C49.1877 16.42 48.5477 16.7133 48.0944 17.3C47.6544 17.8867 47.4344 18.7067 47.4344 19.76V20.02C47.4344 21.1133 47.701 21.9333 48.2344 22.48C48.781 23.0133 49.5477 23.28 50.5344 23.28C51.1077 23.28 51.641 23.2067 52.1344 23.06C52.641 22.9 53.121 22.6467 53.5744 22.3L54.3144 23.98C53.8344 24.3667 53.261 24.6667 52.5944 24.88C51.9277 25.0933 51.221 25.2 50.4744 25.2ZM59.3552 25L54.9952 14.9H57.6552L60.8152 22.8H60.1952L63.4352 14.9H65.9352L61.5552 25H59.3552ZM65.9141 25L72.2941 10.9H74.4541L80.9141 25H78.2941L76.5741 21.04L77.6141 21.74H69.1541L70.2341 21.04L68.5141 25H65.9141ZM73.3541 13.66L70.5341 20.34L70.0141 19.72H76.7341L76.3141 20.34L73.4341 13.66H73.3541ZM85.9141 25.2C84.6741 25.2 83.7474 24.86 83.1341 24.18C82.5207 23.5 82.2141 22.46 82.2141 21.06V14.9H84.7141V21.04C84.7141 21.7867 84.8674 22.34 85.1741 22.7C85.4807 23.0467 85.9474 23.22 86.5741 23.22C87.2807 23.22 87.8541 22.98 88.2941 22.5C88.7474 22.02 88.9741 21.3867 88.9741 20.6V14.9H91.4741V25H89.0341V22.94H89.3141C89.0207 23.66 88.5741 24.22 87.9741 24.62C87.3874 25.0067 86.7007 25.2 85.9141 25.2ZM94.1681 25V17.48C94.1681 17.0533 94.1548 16.62 94.1281 16.18C94.1148 15.74 94.0815 15.3133 94.0281 14.9H96.4481L96.7281 17.66H96.3281C96.4615 16.9933 96.6815 16.44 96.9881 16C97.3081 15.56 97.6948 15.2333 98.1481 15.02C98.6015 14.8067 99.0948 14.7 99.6281 14.7C99.8681 14.7 100.061 14.7133 100.208 14.74C100.355 14.7533 100.501 14.7867 100.648 14.84L100.628 17.04C100.375 16.9333 100.155 16.8667 99.9681 16.84C99.7948 16.8133 99.5748 16.8 99.3081 16.8C98.7348 16.8 98.2481 16.92 97.8481 17.16C97.4615 17.4 97.1681 17.7333 96.9681 18.16C96.7815 18.5867 96.6881 19.0733 96.6881 19.62V25H94.1681ZM105.842 25.2C104.962 25.2 104.189 24.9933 103.522 24.58C102.855 24.1533 102.335 23.5467 101.962 22.76C101.589 21.9733 101.402 21.0333 101.402 19.94C101.402 18.8467 101.589 17.9133 101.962 17.14C102.335 16.3533 102.855 15.7533 103.522 15.34C104.189 14.9133 104.962 14.7 105.842 14.7C106.695 14.7 107.442 14.9133 108.082 15.34C108.735 15.7533 109.169 16.3133 109.382 17.02H109.162L109.382 14.9H111.782C111.742 15.3133 111.702 15.7333 111.662 16.16C111.635 16.5867 111.622 17.0067 111.622 17.42V25H109.142L109.122 22.92H109.362C109.149 23.6133 108.715 24.1667 108.062 24.58C107.409 24.9933 106.669 25.2 105.842 25.2ZM106.542 23.28C107.329 23.28 107.962 23.0067 108.442 22.46C108.922 21.9 109.162 21.06 109.162 19.94C109.162 18.82 108.922 17.9867 108.442 17.44C107.962 16.8933 107.329 16.62 106.542 16.62C105.755 16.62 105.122 16.8933 104.642 17.44C104.162 17.9867 103.922 18.82 103.922 19.94C103.922 21.06 104.155 21.9 104.622 22.46C105.102 23.0067 105.742 23.28 106.542 23.28Z" fill="url(#paint0_linear_55_592)"/>
<g filter="url(#filter0_d_55_592)">
<path d="M106 3L131 18L106 33" stroke="url(#paint1_linear_55_592)" stroke-width="1.5"/>
</g>
<g filter="url(#filter1_d_55_592)">
<path d="M32 33.0396L7.01325 18L32.0265 3.03962" stroke="url(#paint2_linear_55_592)" stroke-width="1.5"/>
</g>
<defs>
<filter id="filter0_d_55_592" x="100.614" y="0.356873" width="34.8436" height="39.2863" filterUnits="userSpaceOnUse" color-interpolation-filters="sRGB">
<feFlood flood-opacity="0" result="BackgroundImageFix"/>
<feColorMatrix in="SourceAlpha" type="matrix" values="0 0 0 0 0 0 0 0 0 0 0 0 0 0 0 0 0 0 127 0" result="hardAlpha"/>
<feOffset dx="-1" dy="2"/>
<feGaussianBlur stdDeviation="2"/>
<feComposite in2="hardAlpha" operator="out"/>
<feColorMatrix type="matrix" values="0 0 0 0 0 0 0 0 0 0 0 0 0 0 0 0 0 0 0.25 0"/>
<feBlend mode="normal" in2="BackgroundImageFix" result="effect1_dropShadow_55_592"/>
<feBlend mode="normal" in="SourceGraphic" in2="effect1_dropShadow_55_592" result="shape"/>
</filter>
<filter id="filter1_d_55_592" x="0.555542" y="0.395874" width="34.8562" height="39.2863" filterUnits="userSpaceOnUse" color-interpolation-filters="sRGB">
<feFlood flood-opacity="0" result="BackgroundImageFix"/>
<feColorMatrix in="SourceAlpha" type="matrix" values="0 0 0 0 0 0 0 0 0 0 0 0 0 0 0 0 0 0 127 0" result="hardAlpha"/>
<feOffset dx="-1" dy="2"/>
<feGaussianBlur stdDeviation="2"/>
<feComposite in2="hardAlpha" operator="out"/>
<feColorMatrix type="matrix" values="0 0 0 0 0 0 0 0 0 0 0 0 0 0 0 0 0 0 0.25 0"/>
<feBlend mode="normal" in2="BackgroundImageFix" result="effect1_dropShadow_55_592"/>
<feBlend mode="normal" in="SourceGraphic" in2="effect1_dropShadow_55_592" result="shape"/>
</filter>
<linearGradient id="paint0_linear_55_592" x1="71" y1="5" x2="71.5147" y2="30.0036" gradientUnits="userSpaceOnUse">
<stop stop-color="#EF7A96"/>
<stop offset="0.852699" stop-color="#FBB063"/>
</linearGradient>
<linearGradient id="paint1_linear_55_592" x1="118.5" y1="3" x2="118.5" y2="33" gradientUnits="userSpaceOnUse">
<stop stop-color="#EF7A96"/>
<stop offset="1" stop-color="#FBB063"/>
</linearGradient>
<linearGradient id="paint2_linear_55_592" x1="19.5" y1="33.0198" x2="19.5475" y2="3.01985" gradientUnits="userSpaceOnUse">
<stop stop-color="#ED9BAF"/>
<stop offset="1" stop-color="#FBB063"/>
</linearGradient>
</defs>
</svg>
